<?xml version="1.0" encoding="utf-8"?>
<svg xmlns="http://www.w3.org/2000/svg" xmlns:xlink="http://www.w3.org/1999/xlink" viewBox="0 0 200 200">
  <defs>
    <style>
      .cls-1 {
        fill: url(#linear-gradient);
      }

      .cls-2 {
        fill: #fff;
      }

      .cls-3 {
        fill: url(#Analogous_3);
      }

      .cls-4 {
        fill: #231f20;
      }
    </style>
    <linearGradient id="linear-gradient" x2="200" y2="200" gradientUnits="userSpaceOnUse">
      <stop offset="0" stop-color="#fff"/>
      <stop offset="0.24" stop-color="#fbfbfb"/>
      <stop offset="0.49" stop-color="#eff0f0"/>
      <stop offset="0.73" stop-color="#dbdcdd"/>
      <stop offset="0.96" stop-color="#c0c2c3"/>
      <stop offset="1" stop-color="#bbbdbf"/>
    </linearGradient>
    <linearGradient id="Analogous_3" data-name="Analogous 3" x1="62.36" y1="139.62" x2="132.3" y2="69.68" gradientUnits="userSpaceOnUse">
      <stop offset="0" stop-color="#00a995"/>
      <stop offset="0" stop-color="#3c3795"/>
      <stop offset="0.51" stop-color="#a53594"/>
      <stop offset="1" stop-color="#da2128"/>
    </linearGradient>
  </defs>
  <title>Jc</title>
  <g id="Layer_2" data-name="Layer 2">
    <g id="Layer_1-2" data-name="Layer 1">
      <rect class="cls-1" width="200" height="200"/>
      <g>
        <g>
          <path class="cls-2" d="M81,54.06v68q0,7.8-3.78,11.76T66,137.7a41.49,41.49,0,0,1-8.52-1l.6-3.36h6.72q11.28,0,11.28-11.28v-68Z"/>
          <path class="cls-2" d="M141.09,132.66l.72,3.36a71.64,71.64,0,0,1-18.12,2.28q-14.64,0-20.7-6.84t-6.06-23.52q0-16.68,6.06-23.52t20.58-6.84q10.44,0,16.92,2.28l-.84,3.24a83.47,83.47,0,0,0-15.24-1.2q-12.48,0-17.46,5.58t-5,20.46q0,14.88,5,20.46T124.41,134A87.33,87.33,0,0,0,141.09,132.66Z"/>
        </g>
        <g>
          <path class="cls-3" d="M81,52.06v68q0,7.8-3.78,11.76T66,135.7a41.49,41.49,0,0,1-8.52-1l.6-3.36h6.72q11.28,0,11.28-11.28v-68Z"/>
          <path class="cls-3" d="M141.09,130.66l.72,3.36a71.64,71.64,0,0,1-18.12,2.28q-14.64,0-20.7-6.84t-6.06-23.52q0-16.68,6.06-23.52t20.58-6.84q10.44,0,16.92,2.28l-.84,3.24a83.47,83.47,0,0,0-15.24-1.2q-12.48,0-17.46,5.58t-5,20.46q0,14.88,5,20.46T124.41,132A87.33,87.33,0,0,0,141.09,130.66Z"/>
        </g>
      </g>
      <g id="Layer_2-2" data-name="Layer 2">
        <g id="Layer_1-2-2" data-name="Layer 1-2">
          <path class="cls-4" d="M190,182a9.17,9.17,0,0,0-.55-3.2,7.29,7.29,0,0,0-1.55-2.5,6.88,6.88,0,0,0-2.37-1.61,7.7,7.7,0,0,0-3-.57,8,8,0,0,0-3,.56,6.77,6.77,0,0,0-2.36,1.6l-.06.07c-.21.23-.4.47-.58.71a5.88,5.88,0,0,0-.52-.6l-.08-.07a6.69,6.69,0,0,0-2.28-1.46,8.26,8.26,0,0,0-3-.54H165v15.2h5.66a8.33,8.33,0,0,0,3-.54,6.88,6.88,0,0,0,2.29-1.42l.08-.08a7.45,7.45,0,0,0,.52-.6,6.79,6.79,0,0,0,1-1.78,8.52,8.52,0,0,0,.55-3.16,7.66,7.66,0,0,1,.29-2.13,6.56,6.56,0,0,1,.23-.62,4.19,4.19,0,0,1,.63-1,3.93,3.93,0,0,1,1.39-1.1,5,5,0,0,1,3.8,0,3.93,3.93,0,0,1,1.39,1.07,4.72,4.72,0,0,1,.85,1.65A7.46,7.46,0,0,1,187,182a6.25,6.25,0,0,1-.59,2.86l-1.91-1.59-1.6,1.92,1.81,1.54a4.93,4.93,0,0,1-4.06.12,3.9,3.9,0,0,1-1.38-1.07,4.19,4.19,0,0,1-.63-1c-.07.25-.15.49-.24.73a8,8,0,0,1-1.27,2.15l.05.07a7,7,0,0,0,2.37,1.6,8,8,0,0,0,3,.56,7.18,7.18,0,0,0,4.37-1.32l1.5,1.23,1.58-1.92-1.34-1.1A8.49,8.49,0,0,0,190,182Zm-15.45,2.73a3.92,3.92,0,0,1-.6.9,4.13,4.13,0,0,1-3.29,1.28h-2.87V177.1h2.87a4.13,4.13,0,0,1,3.29,1.28,3.88,3.88,0,0,1,.6.91,7.15,7.15,0,0,1,0,5.45Z"/>
        </g>
      </g>
    </g>
  </g>
</svg>
